<svg xmlns="http://www.w3.org/2000/svg" viewBox="0 0 19.733 19.298" fill="#FFFFFF">
<path id="Icon_material-notifications-active" data-name="Icon material-notifications-active"
d="M8.537,5.314,7.122,3.9a10.317,10.317,0,0,0-4.077,7.769H5.024A8.358,8.358,0,0,1,8.537,5.314ZM20.8,11.667h1.979A10.38,10.38,0,0,0,18.7,3.9L17.3,5.314a8.407,8.407,0,0,1,3.5,6.353Zm-1.95.495c0-3.038-1.623-5.582-4.453-6.254V5.234a1.484,1.484,0,1,0-2.969,0v.673c-2.84.673-4.453,3.206-4.453,6.254V17.11L4.995,19.089v.99H20.829v-.99L18.849,17.11ZM12.912,23.048a1.734,1.734,0,0,0,.4-.04,2.008,2.008,0,0,0,1.425-1.168,1.987,1.987,0,0,0,.148-.772H10.922A1.994,1.994,0,0,0,12.912,23.048Z"
transform="translate(-3.045 -3.75)"></path> </svg>
