<svg xmlns="http://www.w3.org/2000/svg" width="30" height="26.25" viewBox="0 0 30 26.25">
  <path id="Icon_awesome-th-list" data-name="Icon awesome-th-list" d="M8.75,13.031v4.688a1.406,1.406,0,0,1-1.406,1.406H1.406A1.406,1.406,0,0,1,0,17.719V13.031a1.406,1.406,0,0,1,1.406-1.406H7.344A1.406,1.406,0,0,1,8.75,13.031ZM0,22.406v4.688A1.406,1.406,0,0,0,1.406,28.5H7.344A1.406,1.406,0,0,0,8.75,27.094V22.406A1.406,1.406,0,0,0,7.344,21H1.406A1.406,1.406,0,0,0,0,22.406ZM7.344,2.25H1.406A1.406,1.406,0,0,0,0,3.656V8.344A1.406,1.406,0,0,0,1.406,9.75H7.344A1.406,1.406,0,0,0,8.75,8.344V3.656A1.406,1.406,0,0,0,7.344,2.25ZM12.031,28.5H28.594A1.406,1.406,0,0,0,30,27.094V22.406A1.406,1.406,0,0,0,28.594,21H12.031a1.406,1.406,0,0,0-1.406,1.406v4.688A1.406,1.406,0,0,0,12.031,28.5ZM10.625,3.656V8.344A1.406,1.406,0,0,0,12.031,9.75H28.594A1.406,1.406,0,0,0,30,8.344V3.656A1.406,1.406,0,0,0,28.594,2.25H12.031A1.406,1.406,0,0,0,10.625,3.656Zm1.406,15.469H28.594A1.406,1.406,0,0,0,30,17.719V13.031a1.406,1.406,0,0,0-1.406-1.406H12.031a1.406,1.406,0,0,0-1.406,1.406v4.688A1.406,1.406,0,0,0,12.031,19.125Z" transform="translate(0 -2.25)" fill="#7467f0"/>
</svg>
