<svg xmlns="http://www.w3.org/2000/svg" width="30" height="24" viewBox="0 0 30 24">
  <path id="Icon_awesome-network-wired" data-name="Icon awesome-network-wired" d="M30,12.375v-.75a.75.75,0,0,0-.75-.75H16.125V9H19.5A1.5,1.5,0,0,0,21,7.5v-6A1.5,1.5,0,0,0,19.5,0h-9A1.5,1.5,0,0,0,9,1.5v6A1.5,1.5,0,0,0,10.5,9h3.375v1.875H.75a.75.75,0,0,0-.75.75v.75a.75.75,0,0,0,.75.75H5.625V15H3a1.5,1.5,0,0,0-1.5,1.5v6A1.5,1.5,0,0,0,3,24h7.5A1.5,1.5,0,0,0,12,22.5v-6A1.5,1.5,0,0,0,10.5,15H7.875V13.125h14.25V15H19.5A1.5,1.5,0,0,0,18,16.5v6A1.5,1.5,0,0,0,19.5,24H27a1.5,1.5,0,0,0,1.5-1.5v-6A1.5,1.5,0,0,0,27,15H24.375V13.125H29.25A.75.75,0,0,0,30,12.375ZM12,6V3h6V6ZM9,21H4.5V18H9Zm16.5,0H21V18h4.5Z" fill="#3b76b1"/>
</svg>
