<svg xmlns="http://www.w3.org/2000/svg" width="23.774" height="26.677" viewBox="0 0 23.774 26.677">
  <g id="Group_14" data-name="Group 14" transform="translate(0.25 0.228)" opacity="0.6">
    <path id="icon_action_translate_24px" data-name="icon/action/translate_24px" d="M20.26,23.027l-1.144-3.454H14.3l-1.135,3.454H11.143L15.7,9.211h2.026l4.559,13.816ZM1.6,17.938l5.156-5.78a20.664,20.664,0,0,1-3.019-5.25H5.764A18.314,18.314,0,0,0,8.1,10.765a18.753,18.753,0,0,0,3.211-6.172H0V2.3H7.091V0H9.117V2.3h7.091v2.3H13.24a21.03,21.03,0,0,1-3.758,7.519l-.03.034,2.573,2.89-.77,2.349L8.1,13.816,3.039,19.573Z" transform="translate(1.238 1.439)" fill="none"/>
    <g id="Group_9895" data-name="Group 9895">
      <g id="language">
        <g id="Group_9891" data-name="Group 9891">
          <path id="Path_2067" data-name="Path 2067" d="M124.282,75.661c3.684-.354,7.164.59,10.848-.826-.512.59-1.023,1.77-1.535,1.77a89.062,89.062,0,0,1-9.722,0c-.512,0,1.228-2.714.716-3.3-.512-.826-3.275.118-3.889-.944q1.689-.177,4.3-.354c-.409-3.3-.716-6.49-1.228-10.5C125.919,65.748,126.226,72.593,124.282,75.661Z" transform="translate(-112.206 -50.525)" stroke="#010101" stroke-width="0.5"/>
          <path id="Path_2068" data-name="Path 2068" d="M123.654,62.113c-.409-2.832-.921-5.664-1.433-8.732-3.275.708-6.652-1.18-9.518,1.3-.409-1.652-.2-2.242,1.535-2.36a36.344,36.344,0,0,1,7.164.118c1.023.118,1.842,1.652,2.456,3.186l3.991.354a1.7,1.7,0,0,0,.1.708c-1.228.118-2.456.354-3.889.59.1,1.652.2,3.422.409,5.074A1.106,1.106,0,0,0,123.654,62.113Z" transform="translate(-112.397 -52.2)" stroke="#010101" stroke-width="0.5"/>
          <path id="Path_2069" data-name="Path 2069" d="M113.321,56.518v16.4c2.149.118,3.889.354,5.629.472v.826a36.682,36.682,0,0,1-5.117-.118,2.488,2.488,0,0,1-1.33-1.77c-.1-5.31-.1-10.621-.1-15.931A2.758,2.758,0,0,0,113.321,56.518Z" transform="translate(-112.4 -51.444)" stroke="#010101" stroke-width="0.5"/>
          <path id="Path_2070" data-name="Path 2070" d="M133.812,73.634V56.641c-1.74-.118-3.173-.236-4.912-.472,3.991-2.242,5.833-1.062,5.833,3.422V73.634Z" transform="translate(-112.014 -51.685)" stroke="#010101" stroke-width="0.5"/>
        </g>
        <g id="Group_9892" data-name="Group 9892" transform="translate(2.354 8.968)">
          <path id="Path_2071" data-name="Path 2071" d="M117.258,63.34h-1.944V65.7h2.149v.708H114.7V59.8h2.661v.708h-2.047v2.124h1.944Z" transform="translate(-114.7 -59.8)" stroke="#010101" stroke-width="0.5"/>
          <path id="Path_2072" data-name="Path 2072" d="M118.2,66.508V59.9h.716l1.535,3.3c.409.826.614,1.416.921,2.124h0a22.055,22.055,0,0,1-.1-2.714V59.9h.614v6.608h-.614l-1.535-3.3a20.7,20.7,0,0,1-.921-2.242h0v5.546Z" transform="translate(-114.618 -59.782)" stroke="#010101" stroke-width="0.5"/>
        </g>
        <g id="Group_9893" data-name="Group 9893" transform="translate(15.863 11.093)">
          <path id="Path_2073" data-name="Path 2073" d="M131.175,69.742c-.1,0-.1.118-.2.118a.345.345,0,0,0-.307.118h-.819a1.991,1.991,0,0,1-.921-.118,2.5,2.5,0,0,1-.716-.472,1.887,1.887,0,0,1-.307-1.3,3,3,0,0,1,.1-1.062,4.114,4.114,0,0,1,.2-.944,2.135,2.135,0,0,1,.512-.826.239.239,0,0,1-.2-.236l-.307-.354a2.68,2.68,0,0,1-.307-.59,1.2,1.2,0,0,1,.1-.59,2.185,2.185,0,0,1,.2-.59l.307-.708a.87.87,0,0,1,.409-.472.345.345,0,0,1,.307-.118h.2a.846.846,0,0,1,.614.354,1.885,1.885,0,0,1,.409.944,2.154,2.154,0,0,0-.819-.236,1.146,1.146,0,0,0-.614.118c-.1.118-.307.118-.307.236a.922.922,0,0,0-.2.354.492.492,0,0,0,.307.472l.307.236h.2c.2,0,.307-.118.512-.236l.512-.236c.1-.118.307-.118.409-.236a.346.346,0,0,0,.2-.118v.236c0,.118-.1.236-.1.354a.477.477,0,0,1-.1.354.434.434,0,0,1-.1.236,3.8,3.8,0,0,0-1.535,1.062,2.517,2.517,0,0,0-.614,1.652,1.7,1.7,0,0,0,.1.708l.307.354a.553.553,0,0,0,.409.118c.2,0,.409.118.614.118a3.349,3.349,0,0,1,1.023.118h.614a1.146,1.146,0,0,0,.614-.118l-.307.236-.2.236Z" transform="translate(-127.9 -61.6)" stroke="#010101" stroke-width="0.5"/>
        </g>
      </g>
    </g>
  </g>
</svg>
