<svg xmlns="http://www.w3.org/2000/svg" width="40.66" height="34.061" viewBox="0 0 40.66 34.061">
  <g id="Group_10106" data-name="Group 10106" transform="translate(-1552 -267.939)">
    <path id="Icon_awesome-layer-group" data-name="Icon awesome-layer-group" d="M.727,8.673l13.649,6.192a1.5,1.5,0,0,0,1.247,0L29.272,8.673a1.309,1.309,0,0,0,0-2.345L15.624.135a1.5,1.5,0,0,0-1.247,0L.727,6.327A1.31,1.31,0,0,0,.727,8.673Zm28.545,5.173-3.4-1.543L16.4,16.6a3.377,3.377,0,0,1-2.8,0L4.131,12.3l-3.4,1.543a1.308,1.308,0,0,0,0,2.344l13.649,6.187a1.5,1.5,0,0,0,1.247,0l13.649-6.187a1.308,1.308,0,0,0,0-2.344Zm0,7.488L25.882,19.8,16.4,24.1a3.377,3.377,0,0,1-2.8,0L4.118,19.8.727,21.334a1.308,1.308,0,0,0,0,2.344l13.649,6.187a1.5,1.5,0,0,0,1.247,0l13.649-6.187A1.308,1.308,0,0,0,29.273,21.334Z" transform="translate(1552 272)" fill="#2896e9"/>
    <path id="Icon_metro-checkmark" data-name="Icon metro-checkmark" d="M18.771,5.784l-9,9-4.2-4.2-3,3,7.2,7.2,12-12Z" transform="translate(1569.829 263.216)" fill="#2896e9" stroke="#fff" stroke-width="1.5"/>
  </g>
</svg>
