<svg xmlns="http://www.w3.org/2000/svg" width="33.8" height="33.75" viewBox="0 0 33.8 33.75">
  <g id="Group_10105" data-name="Group 10105" transform="translate(-1552 -268.25)">
    <path id="Icon_awesome-layer-group" data-name="Icon awesome-layer-group" d="M.727,8.673l13.649,6.192a1.5,1.5,0,0,0,1.247,0L29.272,8.673a1.309,1.309,0,0,0,0-2.345L15.624.135a1.5,1.5,0,0,0-1.247,0L.727,6.327A1.31,1.31,0,0,0,.727,8.673Zm28.545,5.173-3.4-1.543L16.4,16.6a3.377,3.377,0,0,1-2.8,0L4.131,12.3l-3.4,1.543a1.308,1.308,0,0,0,0,2.344l13.649,6.187a1.5,1.5,0,0,0,1.247,0l13.649-6.187a1.308,1.308,0,0,0,0-2.344Zm0,7.488L25.882,19.8,16.4,24.1a3.377,3.377,0,0,1-2.8,0L4.118,19.8.727,21.334a1.308,1.308,0,0,0,0,2.344l13.649,6.187a1.5,1.5,0,0,0,1.247,0l13.649-6.187A1.308,1.308,0,0,0,29.273,21.334Z" transform="translate(1552 272)" fill="#76f094"/>
    <g id="Icon_ionic-ios-radio-button-on" data-name="Icon ionic-ios-radio-button-on" transform="translate(1568.19 265.375)">
      <path id="Path_2842" data-name="Path 2842" d="M10.243,4.3a5.941,5.941,0,1,1-4.2,1.74,5.9,5.9,0,0,1,4.2-1.74m0-.924a6.868,6.868,0,1,0,6.868,6.868,6.867,6.867,0,0,0-6.868-6.868Z" fill="#76f094" stroke="#fff" stroke-width="1"/>
      <path id="Path_2843" data-name="Path 2843" d="M15.88,8.782a5.022,5.022,0,1,0,1.469,3.549A4.987,4.987,0,0,0,15.88,8.782Z" transform="translate(-2.089 -2.089)" fill="#76f094" stroke="#fff" stroke-width="1"/>
    </g>
  </g>
</svg>
